<svg preserveAspectRatio="none" width="100%" height="100%" overflow="visible" style="display: block;" viewBox="0 0 19.7701 22" fill="none" xmlns="http://www.w3.org/2000/svg">
<path id="bell" d="M11.8851 21H7.88506M10.8851 1L8.88506 1M3.88506 8V9C3.88506 9.78149 3.88506 10.2343 3.9217 10.5897L2.95273 11.823C1.64857 13.4828 0.996485 14.3127 1.00001 15.0101C1.00308 15.6167 1.28131 16.1892 1.7564 16.5664C2.30259 17 3.35804 17 5.46895 17L14.3012 17C16.4121 17 17.4675 17 18.0137 16.5664C18.4888 16.1892 18.767 15.6167 18.7701 15.0101C18.7736 14.3127 18.1216 13.4828 16.8174 11.823L15.8484 10.5897C15.8851 10.2343 15.8851 9.78148 15.8851 9V8C15.8851 7.07099 15.8851 6.60649 15.8235 6.21783C15.4846 4.07837 13.8067 2.40042 11.6672 2.06156C11.2786 2 10.8141 2 9.88506 2C8.95606 2 8.49155 2 8.10289 2.06156C5.96343 2.40042 4.28548 4.07837 3.94662 6.21783C3.88506 6.60649 3.88506 7.07099 3.88506 8Z" stroke="var(--stroke-0, #CCDFE9)" stroke-width="2" stroke-linecap="round" stroke-linejoin="round"/>
</svg>
