<svg preserveAspectRatio="none" width="100%" height="100%" overflow="visible" style="display: block;" viewBox="0 0 34 24.381" fill="none" xmlns="http://www.w3.org/2000/svg">
<g id="Group">
<path id="Vector" d="M5.36761 14.7143H3.91174C2.31028 14.7143 1 13.3429 1 11.6667V8.72571C1 7.70476 1.48044 6.76 2.29572 6.19619L5.36761 4.04762L7.42039 1.89905C7.97362 1.32 8.70156 1 9.47317 1H20.1592C20.9309 1 21.6734 1.32 22.212 1.89905L27.1765 7.09524L30.8016 8.04C32.0974 8.37524 33 9.59429 33 10.9962V13.1905C33 14.0286 32.3449 14.7143 31.5441 14.7143H30.0883" stroke="var(--stroke-0, #CCDFE9)" stroke-width="2" stroke-linecap="round" stroke-linejoin="round"/>
<path id="Vector_2" d="M22.9199 20.3008L26 23.381M25.1111 14.9621C25.1111 19.149 21.7284 22.5432 17.5556 22.5432C13.3827 22.5432 10 19.149 10 14.9621C10 10.7752 13.3827 7.38098 17.5556 7.38098C21.7284 7.38098 25.1111 10.7752 25.1111 14.9621Z" stroke="var(--stroke-0, #CCDFE9)" stroke-width="2" stroke-linecap="round" stroke-linejoin="round"/>
</g>
</svg>
