<svg preserveAspectRatio="none" width="100%" height="100%" overflow="visible" style="display: block;" viewBox="0 0 18.5735 20" fill="none" xmlns="http://www.w3.org/2000/svg">
<g id="setting-6-gears">
<path d="M11.9868 10C11.9868 11.4912 10.7779 12.7 9.28675 12.7C7.79559 12.7 6.58675 11.4912 6.58675 10C6.58675 8.50883 7.79559 7.3 9.28675 7.3C10.7779 7.3 11.9868 8.50883 11.9868 10Z" stroke="var(--stroke-0, #CCDFE9)" stroke-width="2" stroke-linecap="round" stroke-linejoin="round"/>
<path d="M11.497 2.23079C11.252 1.49577 10.5642 1 9.78939 1H8.78412C8.00935 1 7.3215 1.49577 7.07649 2.23079L6.73118 3.26672C6.00188 3.54367 5.32924 3.93572 4.73546 4.42067L3.66353 4.20131C2.90449 4.04599 2.13121 4.39379 1.74382 5.06477L1.24119 5.93535C0.8538 6.60633 0.939228 7.44991 1.45327 8.0296L2.17851 8.84746C2.11813 9.22273 2.08675 9.6077 2.08675 10C2.08675 10.3923 2.11813 10.7773 2.17851 11.1525L1.45327 11.9704C0.939228 12.5501 0.8538 13.3937 1.24119 14.0646L1.74382 14.9352C2.13121 15.6062 2.90449 15.954 3.66353 15.7987L4.73546 15.5793C5.32924 16.0643 6.00188 16.4563 6.73118 16.7333L7.07649 17.7692C7.3215 18.5042 8.00935 19 8.78412 19H9.78939C10.5642 19 11.252 18.5042 11.497 17.7692L11.8423 16.7333C12.5716 16.4563 13.2442 16.0643 13.8379 15.5794L14.91 15.7988C15.669 15.9541 16.4423 15.6063 16.8297 14.9354L17.3323 14.0648C17.7197 13.3938 17.6343 12.5502 17.1202 11.9705L16.395 11.1526C16.4554 10.7773 16.4868 10.3923 16.4868 10C16.4868 9.6077 16.4554 9.22273 16.395 8.84746L17.1202 8.0296C17.6343 7.44991 17.7197 6.60633 17.3323 5.93535L16.8297 5.06477C16.4423 4.39379 15.669 4.04599 14.91 4.20131L13.838 4.42067C13.2443 3.93572 12.5716 3.54367 11.8423 3.26672L11.497 2.23079Z" stroke="var(--stroke-0, #CCDFE9)" stroke-width="2" stroke-linecap="round" stroke-linejoin="round"/>
</g>
</svg>
