<svg preserveAspectRatio="none" width="100%" height="100%" overflow="visible" style="display: block;" viewBox="0 0 85.6 30" fill="none" xmlns="http://www.w3.org/2000/svg">
<g id="Logo">
<path id="Vector" d="M65.5617 3C62.6857 3 60.0461 4.00614 57.9753 5.68466C55.9045 4.00614 53.2649 3 50.3889 3C47.5129 3 44.8733 4.00614 42.8025 5.68221C40.7292 4.00614 38.0896 3 35.2136 3C32.3376 3 29.698 4.00614 27.6272 5.68221C25.5564 4.00614 22.9167 3 20.0408 3C13.39 3 8 8.37178 8 15C8 21.6282 13.39 27 20.0408 27C22.9167 27 25.5564 25.9939 27.6272 24.3153C29.698 25.9914 32.3376 27 35.2136 27C38.0896 27 40.7292 25.9939 42.8 24.3153C44.8708 25.9914 47.5104 27 50.3864 27C53.2624 27 55.902 25.9939 57.9728 24.3153C60.0436 25.9914 62.6833 27 65.5592 27C72.21 27 77.6 21.6282 77.6 15C77.6 8.37178 72.2124 3 65.5617 3ZM57.9753 20.3914C56.8845 18.8699 56.2418 17.0098 56.2418 14.9975C56.2418 12.9853 56.8869 11.1252 57.9753 9.60368C59.0661 11.1252 59.7088 12.9853 59.7088 14.9975C59.7088 17.0098 59.0661 18.8699 57.9753 20.3914ZM42.8 20.3914C41.7092 18.8699 41.0665 17.0098 41.0665 14.9975C41.0665 12.9853 41.7092 11.1252 42.8 9.60368C43.8908 11.1252 44.5335 12.9853 44.5335 14.9975C44.5335 17.0098 43.8908 18.8699 42.8 20.3914ZM27.6272 20.3914C26.5364 18.8699 25.8937 17.0098 25.8937 14.9975C25.8937 12.9853 26.5364 11.1252 27.6272 9.60368C28.718 11.1252 29.3606 12.9853 29.3606 14.9975C29.3606 17.0098 28.718 18.8699 27.6272 20.3914ZM10.7209 15C10.7209 9.86871 14.8945 5.7092 20.0432 5.7092C22.1781 5.7092 24.1454 6.42577 25.7164 7.63068C24.1257 9.66503 23.1753 12.2196 23.1753 15C23.1753 17.7804 24.1257 20.335 25.7164 22.3693C24.1454 23.5718 22.1781 24.2908 20.0432 24.2908C14.8945 24.2908 10.7209 20.1313 10.7209 15.0025V15ZM29.5404 22.3669C31.1311 20.3325 32.0815 17.7779 32.0815 14.9975C32.0815 12.2172 31.1311 9.66258 29.5404 7.62822C31.1114 6.42331 33.0788 5.70675 35.2136 5.70675C37.3484 5.70675 39.3158 6.42331 40.8868 7.62822C39.2961 9.66258 38.3457 12.2172 38.3457 14.9975C38.3457 17.7779 39.2961 20.3325 40.8868 22.3669C39.3158 23.5693 37.3484 24.2883 35.2136 24.2883C33.0788 24.2883 31.1114 23.5718 29.5404 22.3669ZM44.7157 22.3669C46.3063 20.3325 47.2568 17.7779 47.2568 14.9975C47.2568 12.2172 46.3063 9.66258 44.7157 7.62822C46.2866 6.42577 48.254 5.70675 50.3889 5.70675C52.5237 5.70675 54.4911 6.42331 56.0621 7.62822C54.4714 9.66258 53.521 12.2172 53.521 14.9975C53.521 17.7779 54.4714 20.3325 56.0621 22.3669C54.4911 23.5693 52.5237 24.2883 50.3889 24.2883C48.254 24.2883 46.2866 23.5718 44.7157 22.3669ZM65.5617 24.2883C63.4269 24.2883 61.4595 23.5718 59.8885 22.3669C61.4792 20.3325 62.4296 17.7779 62.4296 14.9975C62.4296 12.2172 61.4792 9.66258 59.8885 7.62822C61.4595 6.42331 63.4269 5.70675 65.5617 5.70675C70.7104 5.70675 74.8816 9.86626 74.8816 14.9975C74.8816 20.1288 70.708 24.2859 65.5617 24.2859V24.2883Z" fill="var(--fill-0, white)"/>
</g>
</svg>
