<svg preserveAspectRatio="none" width="100%" height="100%" overflow="visible" style="display: block;" viewBox="0 0 21.5 15.5" fill="none" xmlns="http://www.w3.org/2000/svg">
<path id="Vector" d="M1.29961 9.1556C1.0278 8.78264 0.891898 8.59616 0.798353 8.23538C0.733882 7.98673 0.733882 7.51327 0.798353 7.26462C0.891898 6.90384 1.0278 6.71736 1.29961 6.3444C2.78902 4.30068 6.05262 0.75 10.75 0.75C15.4474 0.75 18.711 4.30068 20.2004 6.3444C20.4722 6.71736 20.6081 6.90384 20.7016 7.26462C20.7661 7.51327 20.7661 7.98673 20.7016 8.23538C20.6081 8.59616 20.4722 8.78264 20.2004 9.1556C18.711 11.1993 15.4474 14.75 10.75 14.75C6.05262 14.75 2.78902 11.1993 1.29961 9.1556Z" stroke="var(--stroke-0, #80B0C8)" stroke-width="1.5" stroke-linecap="round" stroke-linejoin="round"/>
</svg>
