<svg preserveAspectRatio="none" width="100%" height="100%" overflow="visible" style="display: block;" viewBox="0 0 87 30" fill="none" xmlns="http://www.w3.org/2000/svg">
<g id="layer1">
<path id="path3098" d="M61.6623 18.6327C61.6566 18.619 61.6535 18.6044 61.6528 18.5884C61.6534 18.5927 61.6534 18.594 61.6534 18.5965C61.6678 18.7483 61.7079 19.0339 61.7404 19.2475C61.791 19.1517 61.8411 19.0499 61.8943 18.9421C61.9343 18.8602 61.9143 18.8349 61.8792 18.8219C61.7786 18.786 61.676 18.7107 61.6623 18.6327Z" fill="var(--fill-0, white)"/>
<path id="path3119" d="M63.4082 16.3323C63.4226 16.4952 63.5474 16.515 63.6494 16.372C63.6763 16.3323 63.7069 16.284 63.7433 16.2292C63.7144 16.1909 63.6851 16.1536 63.6544 16.1155C63.512 15.9486 63.1736 15.5881 62.8461 15.3054C63.1718 15.6128 63.3707 15.9882 63.4082 16.3323Z" fill="var(--fill-0, white)"/>
<path id="path3413" d="M56.8785 5.11854C56.8935 5.13949 56.9067 5.16183 56.9198 5.18578C56.9067 5.16008 56.8935 5.13646 56.8785 5.11854Z" fill="var(--fill-0, white)"/>
<path id="path3534" d="M43.5015 0C19.476 0 0 6.71458 0 15.0002C0 23.2844 19.4758 30 43.5015 30C67.5248 30 87 23.2844 87 15.0002C87 6.71458 67.5248 0 43.5015 0ZM43.5015 1.29924C66.6828 1.29924 85.472 7.43197 85.472 15C85.472 22.5681 66.6828 28.702 43.5015 28.702C20.32 28.702 1.52972 22.5681 1.52972 15C1.52972 7.43197 20.32 1.29924 43.5015 1.29924ZM32.1519 3.73606C31.5346 3.73799 30.9142 3.76205 30.2895 3.81319C26.1403 4.15921 22.1911 6.47386 22.1837 9.98766C22.1796 11.7693 23.4579 13.2133 25.439 13.1495C27.767 13.0718 29.6783 11.2239 30.6787 8.89421C31.0586 8.01029 30.3551 7.64313 30.0207 8.15202C29.4235 9.06892 28.5817 9.78062 27.6714 10.2226C26.5758 10.7538 25.4052 10.6104 25.0505 9.7289C24.5515 8.48595 25.5888 6.62584 27.9561 5.75033C31.3752 4.49628 34.9531 5.32572 38.3955 5.96654C38.4446 5.96654 38.6278 6.06726 38.4655 6.15099C37.849 6.48369 37.2425 6.75485 36.2966 7.5609C35.6189 8.13623 34.7313 8.90201 34.0448 9.73614C33.3636 10.5582 32.8805 11.2916 32.2414 12.1043C32.1524 12.2216 32.0427 12.2164 32.044 12.2164C30.4866 12.4769 28.9617 12.6515 27.5658 13.6134C27.2772 13.8107 27.1518 14.1609 27.3269 14.4294C27.4844 14.6669 27.8439 14.6923 28.0939 14.512C28.9614 13.8693 29.8544 13.5667 30.8783 13.5387C30.923 13.5414 30.9443 13.549 30.957 13.576C30.965 13.5915 30.9601 13.6237 30.9417 13.6478C29.4076 15.7561 29.0239 16.2324 27.8699 17.5397C27.2797 18.2115 26.6987 18.7786 26.05 19.3687C23.4298 21.7805 20.6118 21.7388 19.6007 20.2265C18.9967 19.3192 19.0763 18.3666 19.4721 17.5763C19.9595 16.6081 20.945 15.8991 21.7639 15.4847C22.0678 15.3309 22.1556 14.9455 21.8512 14.5946C21.6574 14.3656 21.1881 14.3252 20.8387 14.3886C19.7653 14.5849 18.4973 15.3886 17.7479 16.3559C16.9035 17.4414 16.4817 18.7594 16.6231 20.2379C16.8775 22.9064 19.0953 24.448 21.6129 24.4301C23.6164 24.4146 25.504 23.8134 27.7748 21.5294C29.8916 19.3994 31.8197 16.2178 33.6254 13.2675C33.6819 13.1733 33.7225 13.1224 33.9967 13.0887C35.1294 12.9483 36.8015 12.7884 37.8735 12.727C38.1119 12.7143 38.1599 12.7169 38.2556 12.8348C38.5351 13.1839 38.9542 13.4799 39.2904 13.6602C39.4539 13.7482 39.5321 13.7921 39.6606 13.7947C39.8194 13.7978 39.9429 13.7132 40.0226 13.6235C40.1364 13.4999 40.168 13.3385 40.1064 13.2344C40.0424 13.1252 39.2945 12.7144 39.2725 12.5484C39.2559 12.4448 39.3706 12.4199 39.3706 12.4199C39.92 12.2491 40.4917 11.898 40.8381 11.2407C41.1785 10.593 41.2337 9.72932 40.6112 9.24898C40.0645 8.82716 39.2388 8.89387 38.5798 9.4795C37.9358 10.0485 37.7223 10.8754 37.8095 11.6007C37.8249 11.7262 37.8183 11.769 37.6455 11.7832C36.6547 11.8617 35.7 11.8887 34.6388 11.9446C34.5676 11.9496 34.5451 11.9032 34.5864 11.8545C35.8088 9.75035 37.6338 8.25228 39.6527 6.7767C39.7865 6.67727 39.7456 6.48827 39.7404 6.33032C43.3853 7.11497 46.9075 8.57528 50.689 8.5442C52.2526 8.53152 53.7498 8.29568 55.1809 7.51801C56.4395 6.83786 56.95 6.20879 56.9874 5.55529C57.0169 5.10334 56.6998 4.81788 56.2481 4.91493C52.4273 5.7849 48.7828 5.77504 44.9813 5.31912C40.6398 4.79725 36.4734 3.72251 32.1519 3.73606ZM39.7781 9.83339C39.8674 9.83816 39.9509 9.86779 40.0185 9.92517C40.2199 10.0955 40.1248 10.5208 39.9213 10.8153C39.699 11.1399 39.3221 11.4205 38.9783 11.4886C38.9093 11.5013 38.8497 11.4722 38.8212 11.3208C38.7651 10.9202 38.897 10.3834 39.3288 10.0055C39.4643 9.88685 39.6293 9.82544 39.7781 9.83339ZM70.4506 9.91105C69.7559 9.91105 68.8447 9.91264 68.1209 9.91264C67.9484 9.91264 67.8591 9.93359 67.7778 10.0922C67.5108 10.5994 64.2549 15.4334 63.6487 16.3722C63.5468 16.5152 63.4222 16.4953 63.4078 16.3324C63.3464 15.7749 62.8602 15.1341 62.0946 14.8276C61.5111 14.5929 60.9405 14.5505 60.3474 14.6285C59.2768 14.7709 58.3227 15.331 57.4838 15.9618C56.2196 16.9142 55.1291 18.1481 53.7211 19.06C52.9523 19.5562 51.9 19.989 51.1958 19.3429C50.5584 18.7576 50.6303 17.457 51.6054 16.4514C51.7083 16.3461 51.8315 16.434 51.8121 16.5287C51.7202 16.9837 51.8334 17.436 52.1817 17.7531C52.6071 18.1307 53.2158 18.1737 53.7369 17.9217C54.3519 17.6198 54.7133 17.0369 54.8186 16.3753C54.9819 15.3489 54.1844 14.4434 53.1866 14.371C52.376 14.3147 51.5988 14.594 50.8414 15.2136C50.4619 15.5255 50.2457 15.7562 49.9176 16.219C49.8376 16.3327 49.7146 16.3443 49.7184 16.1761C49.7565 14.8619 49.2077 14.1227 48.1109 14.0984C47.2601 14.0786 46.3507 14.5357 45.6419 15.0957C44.865 15.7138 44.1857 16.5331 43.4578 17.3029C43.3672 17.3977 43.2879 17.3933 43.2627 17.2093C43.2407 16.3387 43.0195 15.4952 42.6128 14.8966C42.4689 14.6882 42.1663 14.5849 41.9118 14.7259C41.7943 14.7897 41.3851 14.9759 41.0879 15.2134C40.94 15.3339 40.8828 15.5082 40.9474 15.732C41.3404 17.0325 41.2538 18.5114 40.7215 19.7605C40.2325 20.9043 39.2818 21.9364 38.1648 22.2854C37.4288 22.5165 36.6635 22.4033 36.1902 21.7569C35.5399 20.8646 35.8024 19.3132 36.7714 18.0248C37.6271 16.8906 38.864 16.1699 40.0983 15.7059C40.2436 15.6504 40.2735 15.5581 40.2325 15.4358C40.1653 15.2344 40.0587 14.9612 40.0147 14.836C39.9015 14.5378 39.5843 14.489 39.1976 14.5309C38.3009 14.6343 37.4921 14.9387 36.6931 15.3624C34.6009 16.4724 33.5518 18.6212 33.0918 19.7706C32.8706 20.3224 32.6812 20.6671 32.4365 20.9726C32.1066 21.3833 31.6929 21.7569 30.9355 22.4158C30.8671 22.4763 30.8161 22.6024 30.8736 22.7194C30.9509 22.878 31.3446 23.4287 31.4557 23.4779C31.5791 23.538 31.7222 23.4542 31.7794 23.4133C32.3093 23.0574 32.943 22.4937 33.2533 22.1112C33.362 21.9802 33.4737 22.0352 33.5313 22.234C33.8209 23.2574 34.579 24.0927 35.6271 24.4421C37.5456 25.0832 39.5359 24.1552 41.0378 22.5401C41.9925 21.5136 42.337 20.8533 42.7026 20.4046C43.3225 19.6432 44.5457 17.9404 46.0025 16.847C46.5367 16.444 47.1691 16.1365 47.487 16.3406C47.7422 16.5041 47.8247 16.8852 47.4152 17.6229C45.93 20.31 43.7444 23.4673 43.3436 24.2331C43.2705 24.366 43.3341 24.4703 43.4745 24.4703C44.2516 24.4667 45.0223 24.4684 45.7278 24.4684C45.8453 24.4629 45.898 24.4099 45.9568 24.3277C47.0966 22.5599 48.1694 20.8771 49.3193 19.1376C49.3836 19.0352 49.443 19.1145 49.4456 19.1593C49.4693 19.5629 49.5694 20.1151 49.8111 20.4777C50.2456 21.148 50.8617 21.4358 51.5449 21.4401C52.0884 21.4463 52.3632 21.3644 52.9493 21.1477C53.4263 20.9724 53.8093 20.7422 54.1031 20.5341C54.2747 20.4161 54.3048 20.6138 54.3004 20.6441C54.0369 22.0475 54.3624 23.7104 55.7705 24.3999C57.4551 25.2228 59.3062 24.0662 60.3712 23.022C60.4753 22.9213 60.5874 22.9319 60.5979 23.1487C60.6205 23.5473 60.8023 24.0206 61.1352 24.3517C62.0277 25.2391 63.8287 24.8875 65.636 23.5015C66.7964 22.6141 68.0106 21.3605 69.1075 20.0327C69.1482 19.9816 69.1783 19.8985 69.0999 19.8152C68.933 19.6421 68.6911 19.4437 68.5257 19.291C68.45 19.2276 68.3393 19.2459 68.2754 19.2937C67.1513 20.353 66.1394 21.5608 64.6768 22.56C64.1834 22.901 63.3975 23.1762 63.0442 22.7028C62.9067 22.5192 62.9222 22.2645 63.058 21.931C63.4848 20.8769 70.2364 10.693 70.5869 10.0922C70.647 9.9878 70.5837 9.91105 70.4506 9.91105ZM60.9901 16.2783C61.1668 16.2767 61.3324 16.3104 61.4831 16.3822C62.3146 16.7753 62.0493 17.7292 61.6773 18.4782C61.6494 18.5361 61.6476 18.5852 61.6623 18.6326C61.676 18.7107 61.7786 18.786 61.8791 18.8219C61.9141 18.8349 61.9341 18.8602 61.8941 18.9421C61.6068 19.5516 61.3432 19.9031 60.9833 20.4326C60.6527 20.922 60.2797 21.3039 59.8281 21.671C59.1472 22.2293 58.2015 22.8372 57.4196 22.4285C57.0723 22.2498 56.9223 21.7686 56.9292 21.3787C56.9473 20.2826 57.4379 19.1572 58.3466 18.0512C59.2468 16.9533 60.224 16.2849 60.9901 16.2783Z" fill="var(--fill-0, white)"/>
</g>
</svg>
