<svg preserveAspectRatio="none" width="100%" height="100%" overflow="visible" style="display: block;" viewBox="0 0 54 32" fill="none" xmlns="http://www.w3.org/2000/svg">
<g id="Logo">
<path id="Vector" d="M20.5738 0.0944419C27.7168 -0.143357 34.8669 0.0927554 41.9974 0.525347C42.7481 0.586905 43.5086 0.581846 44.2477 0.731103C44.6476 0.822175 45.0797 0.966372 45.3136 1.30958C45.5269 1.68314 45.5314 2.11911 45.5867 2.53062C45.7563 4.55191 45.8063 6.58164 45.9661 8.60293C45.6572 8.63835 45.3484 8.59365 45.0395 8.58438C39.5399 8.31538 34.0358 8.09192 28.5273 8.08517C25.6744 8.09276 22.8179 8.06662 19.9677 8.19732C19.2768 8.29345 18.4949 8.51186 18.0958 9.09371C20.2525 9.45546 22.4047 9.84589 24.5604 10.2144C31.7051 11.4776 38.8552 12.713 46 13.9745C45.9938 15.2546 45.9964 16.5346 45.9991 17.8147C41.9813 17.1865 37.9706 16.5085 33.9555 15.86C25.3174 14.4535 16.6819 13.0275 8.04106 11.6344C8.05802 10.2136 8.12229 8.79351 8.15354 7.37177C8.20799 6.24602 8.17407 5.10509 8.44365 3.99958C8.62485 3.21956 8.96049 2.43533 9.58623 1.87794C10.6663 0.867711 12.2285 0.583532 13.6826 0.441022C15.974 0.240326 18.2753 0.174552 20.5738 0.0944419ZM8 13.504C20.3757 15.661 32.7469 17.8543 45.1207 20.024C45.3912 20.0864 45.6804 20.0915 45.9402 20.1851L45.9714 20.2526C45.9036 22.1701 45.8643 24.0894 45.7911 26.007C45.7438 27.1901 45.6117 28.428 44.9672 29.4702C44.2763 30.5479 42.9891 31.1441 41.7153 31.3692C39.8381 31.7023 37.9206 31.7243 36.0193 31.8229C27.8382 32.1737 19.6401 31.9798 11.4724 31.4485C10.8199 31.4055 10.1557 31.3945 9.52196 31.2234C9.19347 31.1255 8.85426 30.9679 8.66859 30.6811C8.46953 30.3051 8.45704 29.8758 8.40794 29.466C8.23298 27.2288 8.14015 24.9875 8.01607 22.7478C12.2294 23.0007 16.4498 23.1424 20.6711 23.231C24.747 23.2934 28.8228 23.2925 32.8986 23.3305C33.7779 23.365 34.7285 23.2065 35.3953 22.623C35.4926 22.5176 35.6506 22.4197 35.6346 22.262C33.7975 22.0015 31.9712 21.6777 30.1377 21.3926C22.7608 20.2011 15.3804 19.0206 8.00446 17.8223C7.99554 16.3828 8.00625 14.9434 8 13.504Z" fill="var(--fill-0, white)"/>
</g>
</svg>
