<svg preserveAspectRatio="none" width="100%" height="100%" overflow="visible" style="display: block;" viewBox="0 0 64 48.0001" fill="none" xmlns="http://www.w3.org/2000/svg">
<g id="Logo">
<path id="Vector" d="M31.9174 0.000145912C18.664 0.0461458 7.95435 10.8295 8.00015 24.0833C8.04575 37.337 18.8292 48.0458 32.083 48C45.3366 47.9544 56.0457 37.1714 55.9999 23.9177C55.9543 10.6641 45.1712 -0.0456539 31.9174 0.000145912ZM32.0004 4.26873C37.2712 4.26873 42.226 6.32153 45.9526 10.0479C49.68 13.7747 51.7322 18.7295 51.7322 24.0001C51.7322 29.2701 49.6798 34.225 45.9526 37.9518C42.226 41.6782 37.2712 43.7306 32.0006 43.7306C26.7296 43.7306 21.7746 41.6782 18.0478 37.9518C14.3206 34.225 12.2682 29.2701 12.2682 24.0001C12.2682 18.7295 14.3206 13.7747 18.0478 10.0479C21.7744 6.32153 26.7298 4.26873 32.0004 4.26873ZM32.2288 6.65593C30.5198 6.65435 28.8198 6.90278 27.1828 7.39332C27.0248 7.44112 26.9058 7.50592 26.8224 7.58732C26.7394 7.66832 26.694 7.76772 26.687 7.86852C26.673 8.07032 26.7964 8.26312 26.973 8.41512C28.5274 9.74492 30.6146 11.7363 32.088 14.2055C31.262 14.2223 30.61 13.7653 30.0486 13.2271C28.0574 11.3321 25.985 9.98172 24.3396 9.05752C24.042 8.89112 23.7184 8.81392 23.4056 8.99352C21.591 10.0487 20.3606 11.0477 18.9198 12.7185C18.7848 12.8753 18.7502 13.0409 18.7998 13.1769C18.8496 13.3129 18.9666 13.4099 19.0972 13.4793C20.6388 14.2967 23.0468 15.8463 25.2692 17.8505C25.074 17.9765 24.842 18.0329 24.5338 17.9893C24.1784 17.9389 23.739 17.7729 23.2162 17.4989C21.1798 16.4289 19.2224 15.8137 17.7302 15.4295C17.3832 15.3405 16.9972 15.4397 16.8114 15.7621C15.8522 17.4287 15.1918 19.4181 14.8794 21.4361C14.8134 21.8661 15.1104 22.2523 15.5366 22.3267C17.2668 22.6295 19.6688 23.1877 21.761 24.5513C23.853 25.9149 25.6374 28.0783 26.1478 31.6173C26.1878 31.9008 26.0792 32.1622 25.8808 32.3138C25.682 32.4658 25.3922 32.5144 25.0416 32.3498C23.9988 31.8612 22.957 31.3739 21.9154 30.8851C21.8006 30.8321 21.6662 30.7831 21.526 30.7831H16.6122C16.236 30.7831 15.953 30.9683 15.8362 31.2325C15.7198 31.4967 15.7718 31.8315 16.0166 32.1118C17.195 33.4688 18.2756 34.933 19.1996 36.4842C19.291 36.6382 19.4296 36.7162 19.6086 36.7162H21.7536C21.9086 36.7176 22.0609 36.676 22.1938 36.596C22.8678 36.2006 23.5418 35.8064 24.2176 35.4114C24.3212 35.3494 24.4244 35.3498 24.5712 35.3498H40.7402C40.8306 35.3498 40.9086 35.379 40.9624 35.4262C41.0164 35.4732 41.0488 35.5366 41.0488 35.6224V36.418C41.0488 36.758 41.3554 37.0184 41.6908 36.9664C43.6952 36.6455 45.5577 35.731 47.037 34.341C47.1003 34.2819 47.1507 34.2103 47.1852 34.1309C47.2197 34.0514 47.2375 33.9657 47.2375 33.879C47.2375 33.7924 47.2197 33.7067 47.1852 33.6272C47.1507 33.5478 47.1003 33.4762 47.037 33.417C45.5579 32.0265 43.6956 31.1118 41.691 30.7911C41.3554 30.7391 41.0488 31.0003 41.0488 31.3401V32.0675C41.0488 32.1541 41.013 32.254 40.9564 32.327C40.8996 32.4002 40.8276 32.4442 40.751 32.4442C40.5922 32.4442 40.4358 32.4482 40.2806 32.4442C40.0358 32.4402 39.9054 32.3002 39.832 32.0983C39.7586 31.8965 39.7606 31.636 39.8116 31.4523C41.004 27.1763 41.2968 24.5771 41.2828 22.6817C41.268 20.6757 41.2168 18.6637 40.3094 16.0077C39.4394 13.4651 38.6304 10.9469 34.4164 7.13112C34.1196 6.86413 33.8068 6.72853 33.4068 6.69953C33.0148 6.67048 32.6219 6.65593 32.2288 6.65593ZM35.2844 26.0649C36.5342 26.0649 37.5488 27.0795 37.5488 28.3293C37.5488 29.5765 36.5342 30.5917 35.2844 30.5917C34.0352 30.5917 33.0228 29.5765 33.0228 28.3293C33.0228 27.0797 34.0354 26.0649 35.2844 26.0649Z" fill="var(--fill-0, white)"/>
</g>
</svg>
