<svg preserveAspectRatio="none" width="100%" height="100%" overflow="visible" style="display: block;" viewBox="0 0 68 52" fill="none" xmlns="http://www.w3.org/2000/svg">
<g id="Logo">
<path id="Union" d="M34 0C39.4912 0 44.6083 1.7052 48.7891 4.61719L46.1475 7.25879C42.6531 4.99159 38.4928 3.66113 34 3.66113C21.6656 3.66113 11.6611 13.6656 11.6611 26C11.6611 38.3344 21.6656 48.3389 34 48.3389C46.3344 48.3389 56.3389 38.3344 56.3389 26C56.3389 21.5282 55.0288 17.3684 52.7617 13.874L55.4033 11.2324C58.2944 15.4132 60 20.5089 60 26C60 40.352 48.352 52 34 52C19.648 52 8 40.352 8 26C8 11.648 19.648 2.9025e-07 34 0ZM26.9277 23.3379C29.0493 23.3379 30.1729 24.3778 30.1729 25.709C30.1727 27.0608 29.112 28.1219 26.9492 28.1221C24.7861 28.1221 23.7042 27.0401 23.7041 25.709C23.7041 24.3778 24.8271 23.3172 26.9277 23.3379ZM50.2236 23.3379C52.3452 23.3379 53.4688 24.3778 53.4688 25.709C53.4686 27.0608 52.408 28.122 50.2451 28.1221C48.082 28.1221 47.0001 27.0401 47 25.709C47 24.3779 48.1231 23.3172 50.2236 23.3379ZM18.8994 24.1279H17.7969L19.3359 26.9355L20.8545 24.1279H19.9395V23.4209H23.0801V24.1279H22.04L19.96 27.9756H17.5059L15.3838 24.1279H14.3438V23.4209H18.8994V24.1279ZM35.6641 24.1279H34.624V27.2686H35.5811C36.4961 27.2684 37.0781 26.6861 37.0781 25.875H37.7646V27.9756H31.4619V27.2686H32.5234V24.1279H31.4619V23.4209H35.6641V24.1279ZM42.2158 24.1279H41.1133L42.6318 26.9355L44.1709 24.1279H43.2559V23.4209H46.3965V24.1279H45.3564L43.2559 27.9756H40.8018L38.6797 24.1279H37.6396V23.4209H42.2158V24.1279ZM26.9697 24.0449C26.2418 24.0241 25.8255 24.7935 25.8047 25.667C25.8047 26.499 26.1376 27.3522 26.9072 27.373C27.6975 27.3938 28.0299 26.5409 28.0508 25.709C28.0716 24.8354 27.6976 24.045 26.9697 24.0449ZM50.2656 24.0449C49.5377 24.0241 49.1214 24.7935 49.1006 25.667C49.1006 26.499 49.4336 27.3522 50.2031 27.373C50.9935 27.3938 51.3268 26.5409 51.3477 25.709C51.3685 24.8354 50.9936 24.0657 50.2656 24.0449ZM58.9805 1.01953V12.8955H58.2734C57.4207 11.3565 56.4222 9.859 55.2783 8.48633L51.5762 12.1885C50.4738 10.7949 49.2051 9.54671 47.8115 8.44434L51.5137 4.74219C50.1409 3.619 48.6638 2.59986 47.083 1.74707V1.01953H58.9805Z" fill="var(--fill-0, white)"/>
</g>
</svg>
