<svg preserveAspectRatio="none" width="100%" height="100%" overflow="visible" style="display: block;" viewBox="0 0 56 40" fill="none" xmlns="http://www.w3.org/2000/svg">
<g id="Logo">
<path id="Vector" d="M27.996 37.6494C18.3554 37.6494 10.4221 29.6526 10.4221 20.004C10.4221 18.0028 10.7794 16.0731 11.4227 14.2148L21.7066 34.2188C21.8495 34.5047 21.9925 34.7191 22.3498 34.7191C22.7072 34.7191 22.8501 34.5047 22.9931 34.2188L27.7816 23.5775C27.8531 23.4346 27.9246 23.3631 27.996 23.3631C28.139 23.3631 28.139 23.5061 28.2104 23.5775L33.0705 34.2188C33.2134 34.5047 33.3564 34.7191 33.7137 34.7191C34.0711 34.7191 34.214 34.5047 34.357 34.2188L44.6409 14.2148C45.2841 16.0016 45.6415 17.9313 45.6415 20.004C45.57 29.6446 37.6446 37.6494 27.996 37.6494ZM27.996 15.4298C27.8531 15.4298 27.8531 15.2869 27.7816 15.2154L22.2863 3.35914C25.979 2.02501 30.021 2.02501 33.7137 3.35914L28.2104 15.2154C28.139 15.2869 28.139 15.4298 27.996 15.4298ZM22.2148 28.2867C22.0719 28.2867 22.0719 28.1437 22.0004 28.0723L12.995 10.7842C14.5674 8.21124 16.8545 6.0671 19.4989 4.57415L25.8598 18.2887C26.0028 18.5745 26.1457 18.646 26.3601 18.646H29.6478C29.8622 18.646 30.0052 18.5745 30.1481 18.2887L36.4296 4.57415C39.074 6.07504 41.3611 8.21918 42.9335 10.7842L33.9996 28.0723C33.9281 28.2152 33.8567 28.2867 33.7852 28.2867C33.6422 28.2867 33.6422 28.1437 33.5708 28.0723L30.1402 20.4963C29.9972 20.2104 29.8543 20.139 29.6399 20.139H26.3522C26.1378 20.139 25.9948 20.2104 25.8519 20.4963L22.4213 28.0723C22.3578 28.1437 22.3578 28.2867 22.2148 28.2867ZM27.996 40C39.0661 40 48 31.0741 48 19.996C48 8.91801 39.0741 0 27.996 0C16.918 0 8 8.93389 8 20.004C8 31.0741 16.9259 40 27.996 40Z" fill="var(--fill-0, white)"/>
</g>
</svg>
